<svg xmlns="http://www.w3.org/2000/svg" xmlns:xlink="http://www.w3.org/1999/xlink"><defs><style>
    .sprite-symbol-usage {display: none;}
    .sprite-symbol-usage:target {display: inline;}
  </style><symbol viewBox="0 0 24 24" id="ic_play_arrow"><path d="M8 5v14l11-7z" /><path d="M0 0h24v24H0z" fill="none" /></symbol><symbol viewBox="0 0 24 24" id="ic_share"><path d="M0 0h24v24H0z" fill="none" /><path d="M18 16.08c-.76 0-1.44.3-1.96.77L8.91 12.7c.05-.23.09-.46.09-.7s-.04-.47-.09-.7l7.05-4.11c.54.5 1.25.81 2.04.81 1.66 0 3-1.34 3-3s-1.34-3-3-3-3 1.34-3 3c0 .24.04.47.09.7L8.04 9.81C7.5 9.31 6.79 9 6 9c-1.66 0-3 1.34-3 3s1.34 3 3 3c.79 0 1.5-.31 2.04-.81l7.12 4.16c-.05.21-.08.43-.08.65 0 1.61 1.31 2.92 2.92 2.92 1.61 0 2.92-1.31 2.92-2.92s-1.31-2.92-2.92-2.92z" /></symbol><symbol viewBox="0 0 24 24" id="ic_fullscreen"><path d="M0 0h24v24H0z" fill="none" /><path d="M7 14H5v5h5v-2H7v-3zm-2-4h2V7h3V5H5v5zm12 7h-3v2h5v-5h-2v3zM14 5v2h3v3h2V5h-5z" /></symbol><symbol viewBox="0 0 24 24" id="ic_pause"><path d="M6 19h4V5H6v14zm8-14v14h4V5h-4z" /><path d="M0 0h24v24H0z" fill="none" /></symbol><symbol viewBox="0 0 24 24" id="ic_fullscreen_exit"><path d="M0 0h24v24H0z" fill="none" /><path d="M5 16h3v3h2v-5H5v2zm3-8H5v2h5V5H8v3zm6 11h2v-3h3v-2h-5v5zm2-11V5h-2v5h5V8h-3z" /></symbol></defs><use id="ic_play_arrow-usage" xlink:href="#ic_play_arrow" class="sprite-symbol-usage" /><use id="ic_share-usage" xlink:href="#ic_share" class="sprite-symbol-usage" /><use id="ic_fullscreen-usage" xlink:href="#ic_fullscreen" class="sprite-symbol-usage" /><use id="ic_pause-usage" xlink:href="#ic_pause" class="sprite-symbol-usage" /><use id="ic_fullscreen_exit-usage" xlink:href="#ic_fullscreen_exit" class="sprite-symbol-usage" /></svg>